<svg xmlns="http://www.w3.org/2000/svg" viewBox="0 0 487.308 601.185"><defs/><g data-name="Group 86"><g data-name="Group 68"><path fill="#dee4ff" d="M379.213 236.724l41.726 18.489-18.4891 41.726-41.726-18.489z" data-name="Rectangle 13"/></g><g data-name="Group 69"><path fill="#f2f2f9" d="M372.529 189.525l42.885 36.956s16.6-27.075 0-42.292c-20.751-18.977-42.885 5.336-42.885 5.336z" data-name="Path 56"/></g><g data-name="Group 70"><circle cx="12.055" cy="12.055" r="12.055" fill="#e4e4ef" data-name="Ellipse 3" transform="translate(385.573 207.707)"/></g><g data-name="Group 71"><path fill="#e4e4ef" d="M430.038 308.101a1.409 1.409 0 01-1.186-.593l-6.719-9.091a1.4253 1.4253 0 112.372-1.581l6.719 9.091a1.352 1.352 0 01-.4 1.976 1.188 1.188 0 01-.786.2z" data-name="Path 57"/></g><g data-name="Group 72"><path fill="#e4e4ef" d="M290.124 275.494a2.81 2.81 0 01-1.186-.4 1.41 1.41 0 01.2-2.174l15.41-13.838a1.5467 1.5467 0 011.976 2.38l-15.415 13.834c-.398 0-.595.198-.985.198z" data-name="Path 58"/></g><g data-name="Group 73"><path fill="#e4e4ef" d="M349.41 247.035a1.708 1.708 0 01-1.186-.593l-5.534-6.719a1.544 1.544 0 112.372-1.976l5.534 6.719a1.565 1.565 0 01-.2 2.174c-.397.197-.595.395-.986.395z" data-name="Path 59"/></g><g data-name="Group 74"><path fill="#e4e4ef" d="M423.32 117.39c-.4 0-.593-.2-.988-.4a1.549 1.549 0 01-.2-2.174l6.719-8.1a1.544 1.544 0 012.372 1.976l-6.719 8.1a1.708 1.708 0 01-1.184.6z" data-name="Path 60"/></g><g data-name="Group 75"><path fill="#e4e4ef" d="M485.774 191.106a1.708 1.708 0 01-1.186-.593l-13.834-16.6a1.544 1.544 0 112.372-1.976l13.834 16.6a1.565 1.565 0 01-.2 2.174c-.397.198-.594.395-.986.395z" data-name="Path 61"/></g><g data-name="Group 76"><path fill="#e4e4ef" d="M318.181 49.209h-.4l-12.648-2.965a1.512 1.512 0 11.593-2.964l12.648 2.964a1.539 1.539 0 011.186 1.779 1.7 1.7 0 01-1.379 1.186z" data-name="Path 62"/></g><g data-name="Group 85"><g data-name="Group 77"><path fill="#696f8c" d="M449.604 197.233h-64.822v-64.822h64.822zm-61.858-2.964h58.893v-58.894h-58.893z" data-name="Path 63"/></g><g data-name="Group 78"><path fill="#696f8c" d="M411.462 376.482h-95.85v-95.85h95.85zm-93.083-2.964H408.3v-89.922h-89.921z" data-name="Path 64"/></g><g data-name="Group 79"><path fill="#696f8c" d="M430.039 179.051a1.51 1.51 0 01-.988-.4l-25.692-25.489a1.5373 1.5373 0 112.174-2.174l25.494 25.494a1.551 1.551 0 010 2.174c-.198.395-.593.395-.988.395z" data-name="Path 65"/></g><g data-name="Group 80"><path fill="#696f8c" d="M404.347 179.051a1.509 1.509 0 01-.988-.4 1.551 1.551 0 010-2.174l25.494-25.494a1.5373 1.5373 0 112.174 2.174l-25.494 25.494a1.452 1.452 0 01-1.186.4z" data-name="Path 66"/></g><g data-name="Group 81"><path fill="#696f8c" d="M383.992 313.834h-40.119a1.559 1.559 0 01-1.581-1.581 1.455 1.455 0 011.581-1.581h40.119a1.581 1.581 0 010 3.162z" data-name="Path 67"/></g><g data-name="Group 82"><path fill="#696f8c" d="M383.992 326.482h-40.119a1.559 1.559 0 01-1.581-1.581 1.455 1.455 0 011.581-1.581h40.119a1.581 1.581 0 010 3.162z" data-name="Path 68"/></g><g data-name="Group 83"><path fill="#696f8c" d="M383.992 338.932h-8.1a1.559 1.559 0 01-1.581-1.581 1.455 1.455 0 011.581-1.581h8.1a1.581 1.581 0 010 3.162z" data-name="Path 69"/></g><g data-name="Group 84"><path fill="#696f8c" d="M368.379 338.932h-24.506a1.559 1.559 0 01-1.581-1.581 1.455 1.455 0 011.581-1.581h24.506a1.581 1.581 0 010 3.162z" data-name="Path 70"/></g></g></g><g data-name="Group 98"><g data-name="Group 87"><path fill="#696f8c" d="M246.245 535.77l-1.383 58.1 100.79.988s.593-11.858-18.577-20.751-23.122-44.068-23.122-44.068z" data-name="Path 71"/></g><g data-name="Group 88"><path fill="#696f8c" d="M64.822 511.264l-21.541 53.953 94.071 35.968s4.545-10.87-10.277-25.889-6.324-49.407-6.324-49.407z" data-name="Path 72"/></g><g data-name="Group 89"><path fill="#010724" d="M169.17 304.348c1.581 31.62 42.1 91.3 48.617 133.992s23.518 119.565 23.518 119.565l79.644-15.02s-10.479-119.368-45.06-193.083c-25.3-53.952-61.66-89.723-61.66-89.723z" data-name="Path 73"/></g><g data-name="Group 90"><path fill="#030047" d="M120.553 555.73c-2.964 1.581-6.126 3.36-9.091 4.941-1.186.593-.2 2.372.988 1.779 2.964-1.581 6.126-3.36 9.091-4.941.989-.593 0-2.372-.988-1.779z" data-name="Path 74"/></g><g data-name="Group 91"><path fill="#030047" d="M121.936 562.055c-2.372 1.976-4.941 3.755-7.312 5.731-.988.79 0 2.569.988 1.779l7.312-5.731c.989-.985-.002-2.57-.988-1.779z" data-name="Path 75"/></g><g data-name="Group 92"><path fill="#030047" d="M314.229 559.483c-1.186 2.569-2.372 4.941-3.755 7.51-.593 1.186 1.186 2.174 1.779.988l3.755-7.51c.592-.988-1.186-1.974-1.779-.988z" data-name="Path 76"/></g><g data-name="Group 93"><path fill="#030047" d="M319.96 566.203c-1.186 2.569-2.372 4.941-3.755 7.51-.593 1.186 1.186 2.174 1.779.988l3.755-7.51c.395-.988-1.186-1.974-1.779-.988z" data-name="Path 77"/></g><g data-name="Group 94"><path fill="#fff" d="M305.534 540.316a1.351 1.351 0 01-1.383-1.383c-3.163-114.625-71.344-239.328-71.935-240.514a1.459 1.459 0 112.569-1.383c.593 1.186 68.972 126.482 72.332 241.9a1.677 1.677 0 01-1.581 1.383z" data-name="Path 78"/></g><g data-name="Group 95"><path fill="#fff" d="M245.851 324.11h-.593a1.39 1.39 0 01-.791-1.976c3.755-10.079-.79-23.913-.79-24.111a1.5622 1.5622 0 012.964-.988c.2.593 5.138 15.02.79 26.087a2.015 2.015 0 01-1.58.988z" data-name="Path 79"/></g><g data-name="Group 96"><path fill="#010724" d="M187.549 377.469c-5.731 59.289-56.525 172.926-56.525 172.926l-74.7-31.621s21.344-62.846 39.526-101.779c14.822-31.62 22.134-87.944 33.2-122.332 2.569-7.9 5.336-14.822 8.3-19.763l10.672-1.581 43.676-6.324c.199-.2 1.582 51.186-4.149 110.474z" data-name="Path 80"/></g><g data-name="Group 97"><path fill="#fff" d="M185.77 355.731a1.492 1.492 0 01-1.383-.791l-4.941-8.893-14.822-5.336a1.5622 1.5622 0 11.988-2.964l15.81 5.534 5.336 9.881a1.37 1.37 0 01-.593 1.976c.198.593 0 .593-.395.593z" data-name="Path 81"/></g></g><g data-name="Group 129"><path fill="#767c99" d="M152.371 257.509l-4.15 15.613-10.672 1.581a106.193 106.193 0 00-8.3 19.763 81.044 81.044 0 01-23.913-14.032z" data-name="Path 82"/><g data-name="Group 99"><path fill="#c4cae7" d="M81.62 198.813c-7.9 26.482-1.779 67.984 19.368 83 0 0 26.68-9.289 33-7.9 6.719-11.462 14.427-22.134 21.541-33.4-9.091-3.557-17.194-6.324-18.972-16.6-5.138-27.668 27.668-21.739 49.407-15.217 5.336-21.344 7.312-54.743 7.312-54.743-52.763-13.44-99.008 3.161-111.656 44.86z" data-name="Path 83"/></g><g data-name="Group 105"><g data-name="Group 100"><path fill="#696f8c" d="M159.289 274.11h-52.965a9.91 9.91 0 01-9.881-9.881v-75.3a9.91 9.91 0 019.881-9.881h52.964a9.91 9.91 0 019.881 9.881v75.3a9.91 9.91 0 01-9.88 9.881z" data-name="Path 84"/></g><g data-name="Group 101"><path fill="#010724" d="M110.869 179.051h-4.348a9.91 9.91 0 00-9.881 9.881v75.3a9.91 9.91 0 009.881 9.881h4.348z" data-name="Path 85"/></g><g data-name="Group 102"><path fill="#030047" d="M103.755 257.904h-7.708a6.58 6.58 0 01-6.522-6.522v-1.186a6.58 6.58 0 016.522-6.522h7.708z" data-name="Path 86"/></g><g data-name="Group 103"><path fill="#010724" d="M11.462 584.781a1.559 1.559 0 01-1.581-1.581V443.082a26.484 26.484 0 0126.48-26.482H46.64a23.448 23.448 0 0023.518-23.518V275.493a26.484 26.484 0 0126.48-26.482 1.559 1.559 0 011.583 1.581 1.455 1.455 0 01-1.581 1.581 23.448 23.448 0 00-23.518 23.518V393.28a26.484 26.484 0 01-26.48 26.482H36.363a23.448 23.448 0 00-23.518 23.518v140.118a1.351 1.351 0 01-1.383 1.383z" data-name="Path 87"/></g><g data-name="Group 104"><path fill="#010724" d="M22.925 586.56H0v-11.463a11.471 11.471 0 0111.462-11.462 11.471 11.471 0 0111.462 11.462v11.462z" data-name="Path 88"/></g></g><g data-name="Group 111"><g data-name="Group 106"><path fill="#767c99" d="M235.769 100.988c6.126 14.624 6.522 30.237-12.648 36.364a28.564 28.564 0 01-34.783-16.6c-6.126-14.624-.4-30.83 12.648-36.364s28.657 1.976 34.783 16.6z" data-name="Path 89"/></g><g data-name="Group 107"><circle cx="1.976" cy="1.976" r="1.976" fill="#030047" data-name="Ellipse 4" transform="translate(222.924 97.629)"/></g><path fill="#696f8c" d="M226.284 81.028c0-13.043-21.541 1.581-25.3 3.36-11.66 2.174-21.937 17.589-18.379 31.225 2.964 11.66 16.4 25.494 23.518 22.134 11.66-6.917 13.439-18.379 8.1-29.249 1.976-2.372-.4-5.929.593-8.7 1.389-4.343 11.666-14.027 11.468-18.77z" data-name="Path 90"/><g data-name="Group 108"><path fill="#767c99" d="M210.078 107.51c-21.739-1.976-19.17 15.415-11.067 19.368 6.719 3.162 17 1.976 21.146-7.9s-10.079-11.468-10.079-11.468z" data-name="Path 91"/></g><g data-name="Group 109"><path fill="#030047" d="M212.055 115.021a9.775 9.775 0 00-12.253 2.569c-.791.988.593 2.372 1.383 1.383a7.952 7.952 0 019.881-2.174c1.186.396 2.174-1.185.989-1.778z" data-name="Path 92"/></g><g data-name="Group 110"><path fill="#030047" d="M237.351 105.731a41.253 41.253 0 00-8.3-10.277c-.988-.791-2.372.593-1.383 1.383a42.42 42.42 0 017.905 9.881 1.017 1.017 0 101.778-.987z" data-name="Path 93"/></g></g><g data-name="Group 115"><g data-name="Group 112"><path fill="#c4cae7" d="M208.893 154.348c-30.83-6.719-43.281 7.9-54.348 52.964s-30.83 71.146-30.83 71.146 89.723 25.3 127.865 19.763c0 .198 22.925-129.64-42.687-143.873z" data-name="Path 94"/></g><g data-name="Group 113"><path fill="#c4cae7" d="M184.387 159.486l3.162-15.415 42.1 4.743-5.138 18.972z" data-name="Path 95"/></g><g data-name="Group 114"><path fill="#030047" d="M154.149 210.277h-.4a1.414 1.414 0 01-.988-1.779l8.893-28.854a1.439 1.439 0 112.767.79l-8.893 28.854c.005.594-.587.989-1.379.989z" data-name="Path 96"/></g></g><g data-name="Group 125"><g data-name="Group 116"><path fill="#c4cae7" d="M331.422 140.514c-10.474 20.949-17.194 28.656-29.644 32.213-18.775 5.534-63.636-19.17-91.7-14.624l-6.719 57.511s40.711 26.482 87.747 22.727c40.711-3.36 67.786-45.059 72.727-65.613-4.941-13.637-21.344-24.704-32.411-32.214z" data-name="Path 97"/></g><g data-name="Group 117"><path fill="#030047" d="M247.232 234.584a.726.726 0 01-.593-.2 40.157 40.157 0 00-13.636-2.964 1.677 1.677 0 01-1.581-1.383 1.7 1.7 0 011.581-1.581 41.993 41.993 0 0114.819 3.162 1.444 1.444 0 01.79 1.976c-.39.595-.79.99-1.38.99z" data-name="Path 98"/></g><g data-name="Group 118"><path fill="#767c99" d="M332.611 138.34c-2.372-16.8.593-31.423 7.707-36.759 10.079-7.51 7.115 9.091 7.115 9.091z" data-name="Path 99"/></g><g data-name="Group 119"><path fill="#696f8c" d="M355.335 90.91l-36.166 36.364c-3.36 3.36 1.976 8.7 5.336 5.336l36.166-36.364c1.779-1.779 4.15-6.917 2.767-8.1-1.186-1.584-6.324.985-8.103 2.764z" data-name="Path 100"/></g><g data-name="Group 120"><path fill="#767c99" d="M330.632 141.898c5.731-10.079 8.5-26.285 15.217-40.711 5.731-12.253 10.672-16.008 13.241-10.87 1.779 3.36-1.779 7.115-4.15 18.379 0 0 8.5 1.779 9.091 7.707 0 0 7.51 1.779 8.1 11.858.2 4.941 1.779 11.067-3.953 10.079-1.186 5.138-2.174 15.217-3.162 22.134-1.779 12.451-7.707 16.206-7.707 16.206z" data-name="Path 101"/></g><g data-name="Group 121"><path fill="#030047" d="M353.556 110.672l-1.383 3.953c-.4 1.186 1.383 1.779 1.976.593.4-1.383.988-2.569 1.383-3.953a1.032 1.032 0 00-1.976-.593z" data-name="Path 102"/></g><g data-name="Group 122"><path fill="#030047" d="M370.555 129.051c-.2-1.186-2.174-.791-1.976.593a9.853 9.853 0 01-.593 4.743c-.4 1.186 1.383 1.779 1.976.593a12.446 12.446 0 00.593-5.929z" data-name="Path 103"/></g><g data-name="Group 123"><path fill="#030047" d="M342.687 108.3a45.883 45.883 0 00-4.743 14.427c-.2 1.186 1.779 1.779 1.976.593a44.9 44.9 0 014.546-14.032c.395-1.185-1.186-2.173-1.779-.988z" data-name="Path 104"/></g><g data-name="Group 124"><path fill="#030047" d="M363.043 117.786c-.4.791-.593 1.779-.988 2.569-.4 1.186 1.383 1.779 1.976.593.4-.79.593-1.779.988-2.569.396-1.186-1.581-1.778-1.976-.593z" data-name="Path 105"/></g></g><g data-name="Group 126"><path fill="#636986" d="M424.9 90.908h-62.846a1.559 1.559 0 01-1.581-1.581 1.455 1.455 0 011.581-1.582h59.881V7.509h-84.19v40.118a1.559 1.559 0 01-1.581 1.581 1.455 1.455 0 01-1.581-1.581V4.545h90.316z" data-name="Path 106"/></g><g data-name="Group 127"><path fill="#767c99" d="M402.371 20.949a3.891 3.891 0 00-5.336 1.581l-18.974 34.98-11.659-12.253a4.238 4.238 0 00-5.138-.79 3.867 3.867 0 00-.79 5.929l13.439 14.427 2.964 3.162a2.8 2.8 0 004.545-.593l2.174-3.755 20.356-37.352a4.186 4.186 0 00-1.581-5.336z" data-name="Path 107"/></g><g data-name="Group 128"><path fill="#767c99" d="M417.193 0h12.055v12.055h-12.055z" data-name="Rectangle 14"/></g></g></svg>